<svg width="14" height="14" viewBox="0 0 14 14" fill="none" xmlns="http://www.w3.org/2000/svg">
<path fill-rule="evenodd" clip-rule="evenodd" d="M6.99999 3.5C5.71133 3.5 4.66666 4.54467 4.66666 5.83333C4.66666 7.122 5.71133 8.16667 6.99999 8.16667C8.28865 8.16667 9.33332 7.122 9.33332 5.83333C9.33332 4.54467 8.28865 3.5 6.99999 3.5ZM5.83332 5.83333C5.83332 5.189 6.35566 4.66667 6.99999 4.66667C7.64432 4.66667 8.16666 5.189 8.16666 5.83333C8.16666 6.47767 7.64432 7 6.99999 7C6.35566 7 5.83332 6.47767 5.83332 5.83333Z" fill="#12F7D6"/>
<path fill-rule="evenodd" clip-rule="evenodd" d="M6.6761 13.9018C6.67627 13.9019 6.67641 13.902 6.99999 13.4167L6.6761 13.9018C6.87204 14.0324 7.12762 14.0327 7.32356 13.902L6.99999 13.4167C7.32356 13.902 7.3234 13.9021 7.32356 13.902L7.32555 13.9007L7.32944 13.8981L7.3428 13.8891C7.35416 13.8813 7.37036 13.8703 7.39108 13.8559C7.43251 13.8272 7.49205 13.7854 7.56711 13.7312C7.71717 13.6228 7.92961 13.4646 8.18368 13.2623C8.69088 12.8584 9.36868 12.275 10.0485 11.5574C11.3842 10.1475 12.8333 8.10947 12.8333 5.83333C12.8333 4.28624 12.2187 2.80251 11.1248 1.70854C10.0308 0.614581 8.54709 0 6.99999 0C5.45289 0 3.96916 0.614581 2.8752 1.70854C1.78124 2.80251 1.16666 4.28624 1.16666 5.83333C1.16666 8.10947 2.61581 10.1475 3.95152 11.5574C4.6313 12.275 5.3091 12.8584 5.8163 13.2623C6.07037 13.4646 6.28281 13.6228 6.43287 13.7312C6.50793 13.7854 6.56747 13.8272 6.6089 13.8559C6.62962 13.8703 6.64582 13.8813 6.65718 13.8891L6.67054 13.8981L6.67443 13.9007L6.6761 13.9018ZM3.70016 2.5335C4.57533 1.65833 5.76231 1.16667 6.99999 1.16667C8.23767 1.16667 9.42465 1.65833 10.2998 2.5335C11.175 3.40867 11.6667 4.59566 11.6667 5.83333C11.6667 7.64053 10.4908 9.39415 9.20152 10.7551C8.5688 11.4229 7.9341 11.9697 7.45693 12.3497C7.27934 12.4911 7.12423 12.6089 6.99999 12.7007C6.87575 12.6089 6.72064 12.4911 6.54305 12.3497C6.06588 11.9697 5.43118 11.4229 4.79846 10.7551C3.50917 9.39415 2.33332 7.64053 2.33332 5.83333C2.33332 4.59566 2.82499 3.40867 3.70016 2.5335Z" fill="#12F7D6"/>
</svg>
