<svg width="40" height="40" viewBox="0 0 40 40" fill="none" xmlns="http://www.w3.org/2000/svg">
<rect width="40" height="40" rx="20" fill="#43454D"/>
<path fill-rule="evenodd" clip-rule="evenodd" d="M9.00001 13.9827C8.99985 13.9925 8.99983 14.0024 8.99996 14.0122V26C8.99996 27.6523 10.3477 29 12 29H28C29.6523 29 31 27.6523 31 26V14.0124C31.0001 14.0024 31.0001 13.9925 30.9999 13.9825C30.9904 12.3382 29.6464 11 28 11H12C10.3535 11 9.0094 12.3383 9.00001 13.9827ZM11.1065 13.5539C11.2719 13.2269 11.612 13 12 13H28C28.3879 13 28.728 13.2269 28.8934 13.5539L20 19.7793L11.1065 13.5539ZM29 15.9207V26C29 26.5477 28.5477 27 28 27H12C11.4522 27 11 26.5477 11 26V15.9207L19.4265 21.8192C19.7708 22.0603 20.2291 22.0603 20.5734 21.8192L29 15.9207Z" fill="#12F7D6"/>
</svg>
