<svg width="14" height="12" viewBox="0 0 14 12" fill="none" xmlns="http://www.w3.org/2000/svg">
<path fill-rule="evenodd" clip-rule="evenodd" d="M5.83334 0.166687C5.36921 0.166687 4.9241 0.351061 4.59591 0.67925C4.26772 1.00744 4.08334 1.45256 4.08334 1.91669V2.50002H2.33334C1.36685 2.50002 0.583344 3.28352 0.583344 4.25002V10.0834C0.583344 11.0499 1.36685 11.8334 2.33334 11.8334H11.6667C12.6332 11.8334 13.4167 11.0499 13.4167 10.0834V4.25002C13.4167 3.28352 12.6332 2.50002 11.6667 2.50002H9.91668V1.91669C9.91668 1.45256 9.7323 1.00744 9.40411 0.67925C9.07593 0.351061 8.63081 0.166687 8.16668 0.166687H5.83334ZM8.75001 2.50002V1.91669C8.75001 1.76198 8.68855 1.6136 8.57916 1.50421C8.46976 1.39481 8.32139 1.33335 8.16668 1.33335H5.83334C5.67863 1.33335 5.53026 1.39481 5.42086 1.50421C5.31147 1.6136 5.25001 1.76198 5.25001 1.91669V2.50002H8.75001ZM5.25001 3.66669H8.75001V10.6667H5.25001V3.66669ZM4.08334 3.66669H2.33334C2.01118 3.66669 1.75001 3.92785 1.75001 4.25002V10.0834C1.75001 10.4055 2.01118 10.6667 2.33334 10.6667H4.08334V3.66669ZM9.91668 10.6667V3.66669H11.6667C11.9888 3.66669 12.25 3.92785 12.25 4.25002V10.0834C12.25 10.4055 11.9888 10.6667 11.6667 10.6667H9.91668Z" fill="#12F7D6"/>
</svg>
