<svg width="14" height="14" viewBox="0 0 14 14" fill="none" xmlns="http://www.w3.org/2000/svg">
<path d="M9.91417 0.622203C8.99648 0.614228 8.11237 0.967009 7.45226 1.60456L7.44624 1.61047L6.4429 2.60797C6.21443 2.83511 6.21336 3.20445 6.4405 3.43292C6.66764 3.66139 7.03698 3.66247 7.26545 3.43533L8.26563 2.44096C8.7054 2.01767 9.29357 1.78352 9.90403 1.78883C10.5158 1.79414 11.1011 2.03954 11.5337 2.47215C11.9663 2.90477 12.2117 3.49 12.217 4.1018C12.2223 4.71199 11.9884 5.29992 11.5654 5.73962L9.8192 7.48583C9.58265 7.72247 9.29791 7.90553 8.98442 8.02247C8.67093 8.13941 8.33596 8.18757 8.00223 8.16367C7.66849 8.13976 7.3438 8.04437 7.05018 7.88395C6.75656 7.72353 6.50087 7.50184 6.30046 7.23391C6.10749 6.97593 5.74192 6.92323 5.48394 7.1162C5.22596 7.30917 5.17326 7.67474 5.36623 7.93272C5.66685 8.33461 6.05038 8.66715 6.49082 8.90778C6.93125 9.14841 7.41829 9.2915 7.91889 9.32735C8.41949 9.3632 8.92194 9.29097 9.39217 9.11556C9.8624 8.94016 10.2894 8.66567 10.6442 8.31072L12.3942 6.56079L12.4013 6.55356C13.0388 5.89345 13.3916 5.00935 13.3836 4.09166C13.3756 3.17397 13.0076 2.29613 12.3586 1.6472C11.7097 0.998268 10.8319 0.630177 9.91417 0.622203Z" fill="#12F7D6"/>
<path d="M6.08111 4.6726C5.58051 4.63675 5.07805 4.70898 4.60782 4.88439C4.13762 5.05979 3.71064 5.33425 3.35584 5.68916L1.60584 7.43916L1.59873 7.44639C0.96118 8.1065 0.608399 8.99061 0.616374 9.9083C0.624348 10.826 0.99244 11.7038 1.64137 12.3528C2.2903 13.0017 3.16814 13.3698 4.08583 13.3778C5.00352 13.3857 5.88763 13.0329 6.54773 12.3954L6.55496 12.3883L7.55246 11.3908C7.78027 11.163 7.78027 10.7936 7.55246 10.5658C7.32466 10.338 6.95531 10.338 6.72751 10.5658L5.73378 11.5596C5.29408 11.9825 4.70616 12.2164 4.09597 12.2111C3.48417 12.2058 2.89894 11.9604 2.46633 11.5278C2.03371 11.0952 1.78831 10.51 1.783 9.89816C1.77769 9.28796 2.01164 8.70004 2.43458 8.26034L4.1808 6.51412C4.41734 6.27749 4.70209 6.09442 5.01558 5.97748C5.32906 5.86054 5.66403 5.81239 5.99777 5.83629C6.3315 5.86019 6.65619 5.95559 6.94981 6.11601C7.24344 6.27643 7.49913 6.49812 7.69954 6.76605C7.89251 7.02403 8.25808 7.07673 8.51606 6.88376C8.77403 6.69078 8.82673 6.32522 8.63376 6.06724C8.33315 5.66535 7.94961 5.33281 7.50918 5.09218C7.06874 4.85155 6.58171 4.70846 6.08111 4.6726Z" fill="#12F7D6"/>
</svg>
